<svg xmlns="http://www.w3.org/2000/svg" width="120" height="120" fill="none" viewBox="0 0 120 120"><g id="Group 1"><circle id="Ellipse 1" cx="60" cy="60" r="60" fill="#C4C4C4"/><path id="chat" fill="#E10F4C" d="M38.8973 30H69.6603C72.1071 30 74.3314 30.9423 75.9453 32.4656C77.5593 33.9889 78.5576 36.0884 78.5576 38.3977V57.1267C78.5576 59.4361 77.5593 61.5355 75.9453 63.0588C74.3314 64.5821 72.1071 65.5244 69.6603 65.5244H54.2762L40.7647 76.4854C40.1388 76.9932 39.1922 76.9249 38.6542 76.3292C38.3904 76.0363 38.2714 75.675 38.2973 75.3186L39.0163 65.5196H38.8973C36.4506 65.5196 34.2262 64.5772 32.6123 63.0539C30.9984 61.5355 30 59.4361 30 57.1267V38.3977C30 36.0884 30.9984 33.9889 32.6123 32.4656C34.2211 30.9423 36.4454 30 38.8973 30ZM82.9235 43.661C84.6668 43.9783 86.229 44.7888 87.4394 45.9313C89.0172 47.4204 90 49.4759 90 51.7414V70.4703C90 72.7358 89.0223 74.7913 87.4394 76.2804C85.8617 77.7695 83.6839 78.6972 81.2837 78.6972H80.9682L81.7027 88.6768C81.7234 88.9893 81.6251 89.3115 81.3924 89.5654C80.9216 90.0879 80.0888 90.1464 79.5405 89.7021L65.9772 78.3749H48.1102L56.9092 69.9284H75.5522C79.6181 69.9284 82.9494 66.789 82.9494 62.9465V44.2127C82.9442 44.0272 82.939 43.8416 82.9235 43.661ZM43.2839 51.3264C42.4562 51.3264 41.7838 50.6917 41.7838 49.9105C41.7838 49.1293 42.4562 48.4946 43.2839 48.4946H58.9835C59.8112 48.4946 60.4837 49.1293 60.4837 49.9105C60.4837 50.6917 59.8112 51.3264 58.9835 51.3264H43.2839ZM43.2839 44.3152C42.4562 44.3152 41.7838 43.6805 41.7838 42.8993C41.7838 42.1181 42.4562 41.4834 43.2839 41.4834H65.5375C66.3652 41.4834 67.0377 42.1181 67.0377 42.8993C67.0377 43.6805 66.3652 44.3152 65.5375 44.3152H43.2839ZM69.6551 32.8318H38.8973C37.2782 32.8318 35.8039 33.4567 34.7332 34.4674C33.6624 35.4781 33.0003 36.8647 33.0003 38.3977V57.1267C33.0003 58.6549 33.6624 60.0464 34.7332 61.057C35.8039 62.0677 37.2782 62.6926 38.8973 62.6926H40.6251V62.6975L40.7233 62.7024C41.5458 62.7561 42.1717 63.4299 42.1148 64.2062L41.5303 72.145L52.6726 63.1028C52.9416 62.8489 53.3141 62.6926 53.7279 62.6926H69.6551C71.2743 62.6926 72.7485 62.0677 73.8193 61.057C74.8901 60.0464 75.5522 58.6549 75.5522 57.1267V38.3977C75.5522 36.8696 74.8901 35.4781 73.8193 34.4674C72.7537 33.4567 71.2794 32.8318 69.6551 32.8318Z"/></g></svg>