<svg width="120" height="120" viewBox="0 0 120 120" fill="none" xmlns="http://www.w3.org/2000/svg">
<g id="responsive">
<circle id="Ellipse 2" cx="60" cy="60" r="60" fill="#C4C4C4"/>
<path id="responsive_2" fill-rule="evenodd" clip-rule="evenodd" d="M74.126 46.8376H86.5674C87.5146 46.8376 88.3789 47.34 88.9941 48.1475C89.6191 48.9614 90 50.0805 90 51.3078V85.5299C90 86.7635 89.6143 87.8889 88.9941 88.6901C88.3691 89.504 87.5098 90 86.5674 90H74.126C73.1787 90 72.3145 89.4977 71.6992 88.6901C71.0742 87.8762 70.6934 86.7571 70.6934 85.5299V51.3014C70.6934 50.0678 71.0791 48.9423 71.6992 48.1412C72.3242 47.3273 73.1787 46.8376 74.126 46.8376ZM85.3467 66.3396L79.5703 67.8402L80.7373 65.5892C78.8672 63.0967 76.8164 62.2319 74.3994 63.2365C76.9189 59.0081 80.3467 58.9127 83.0664 61.0937L84.2578 58.7982L85.3467 66.3396ZM57.9785 55.0593L63.7549 53.5587L62.5879 55.8097C64.458 58.3022 66.5088 59.167 68.9258 58.1624C66.4063 62.3908 62.9785 62.4862 60.2588 60.3052L59.0674 62.6007L57.9785 55.0593ZM31.4893 30H83.3057C84.126 30 84.7949 30.8711 84.7949 31.9394V43.6647H81.6309V35.78C81.6309 34.8389 81.04 34.0632 80.3125 34.0632H34.4775C33.7549 34.0632 33.1592 34.8326 33.1592 35.78V68.7685C33.1592 69.7096 33.75 70.4854 34.4775 70.4854H67.4512V78.5799H31.4893C30.6689 78.5799 30 77.7088 30 76.6405V31.9394C30 30.8711 30.6689 30 31.4893 30ZM64.1504 81.2569C64.1846 84.3027 65.1465 87.0242 67.7588 89.1734H47.0361C49.1211 87.2022 50.6494 84.805 50.6445 81.2569H64.1504ZM57.3975 72.0432C58.4521 72.0432 59.3115 73.156 59.3115 74.5358C59.3115 75.9093 58.4521 77.0284 57.3975 77.0284C56.3428 77.0284 55.4834 75.9156 55.4834 74.5358C55.4834 73.1624 56.3379 72.0432 57.3975 72.0432ZM80.3418 84.5061C81.1182 84.5061 81.7529 85.3201 81.7529 86.3438C81.7529 87.3548 81.1279 88.1814 80.3418 88.1814C79.5654 88.1814 78.9307 87.3675 78.9307 86.3438C78.9307 85.3328 79.5557 84.5061 80.3418 84.5061ZM72.1387 83.1072H88.5498V52.9356H72.1387V83.1072Z" fill="#E10F4C"/>
</g>
</svg>
