<svg xmlns="http://www.w3.org/2000/svg" width="120" height="120" fill="none" viewBox="0 0 120 120"><g id="support"><circle id="Ellipse 3" cx="60" cy="60" r="60" fill="#C4C4C4"/><path id="support_2" fill="#E10F4C" fill-rule="evenodd" d="M31.2402 85.6857H37.3877C36.9336 85.4815 36.5918 84.7497 36.5918 83.8987V31.8465C36.5918 30.8339 37.0703 30 37.6514 30H82.0703C82.6562 30 83.1299 30.8339 83.1299 31.8465V83.8902C83.1299 84.7497 82.793 85.473 82.334 85.6772H88.7598C89.4434 85.6772 90 86.6473 90 87.8386C90 89.0299 89.4434 90 88.7598 90H31.2402C30.5566 90 30 89.0299 30 87.8386C30 86.6558 30.5566 85.6857 31.2402 85.6857ZM68.9258 69.1179C68.501 70.1475 67.9004 70.9304 67.1973 71.3473C67.1631 71.3729 67.1289 71.3899 67.0947 71.3899C67.0605 71.3899 66.9922 71.2963 66.9922 71.3558V71.3729C66.9922 71.7898 66.7969 72.1302 66.5576 72.1302H65.6201C65.3809 72.1302 65.1855 71.7898 65.1855 71.3729V59.6298C65.1855 59.2129 65.3809 58.8725 65.6201 58.8725H66.5576C66.7969 58.8725 66.9922 59.2129 66.9922 59.6298V59.6979C67.0215 59.6724 67.0557 59.6639 67.0947 59.6639C67.124 59.6639 67.1826 59.6383 67.1729 59.6894C67.7051 59.9957 68.1836 60.5233 68.5693 61.2041V55.4177C68.5693 39.8369 51.3281 39.9986 51.3281 55.4177V61.587C51.7432 60.719 52.2949 60.0468 52.9248 59.6809C52.9492 59.6639 52.9785 59.6554 53.0029 59.6554C53.0371 59.6554 53.1055 59.749 53.1055 59.6894V59.6213C53.1055 59.2044 53.3008 58.864 53.54 58.864H54.4775C54.7168 58.864 54.9121 59.2044 54.9121 59.6213V71.3643C54.9121 71.7813 54.7168 72.1217 54.4775 72.1217H53.54C53.3008 72.1217 53.1055 71.7813 53.1055 71.3643V71.3558C53.0762 71.3814 53.042 71.3899 53.0029 71.3899C52.9688 71.3899 52.9346 71.3729 52.9004 71.3473C52.1973 70.9304 51.5967 70.139 51.1719 69.1179C50.9473 68.5818 50.7764 67.9776 50.6641 67.3309H50.2832V55.4177C50.2783 35.9991 69.707 36.1183 69.7119 55.4177V67.3394H69.4336C69.3213 67.9776 69.3115 69.1179 68.9258 69.1179ZM58.0518 69.7816C57.6074 70.8027 57.251 71.9515 57.6221 73.6364C57.8613 74.7256 58.4082 75.6276 59.1016 76.1211C57.9687 71.7728 61.2207 70.2071 61.3184 75.3638C62.4072 73.7895 62.3975 71.475 61.6016 69.5944C61.2256 68.7094 61.0352 68.2073 60.9521 67.6968C60.9033 67.416 60.8936 67.1352 60.8936 66.7863C60.8936 65.5864 60.9717 59.315 60.9863 58.0471C61.0156 55.6559 63.125 54.4476 62.3779 51.0438C62.1387 49.9546 61.5918 49.0526 60.8984 48.5591C62.0312 52.9074 58.7793 54.4731 58.6816 49.3164C57.5928 50.8907 57.6025 53.2052 58.3984 55.0858C58.75 55.9112 59.1602 56.4218 59.1357 58.0471C59.1064 59.1703 59.0674 65.4333 59.0234 66.5565C59.0088 67.0075 58.9844 67.3053 58.9209 67.5862C58.8086 68.0967 58.5791 68.5647 58.0518 69.7731V69.7816ZM38.4033 32.8932H81.4648V83.3712H38.4033V32.8932ZM58.2568 86.4941H61.7432C62.0703 86.4941 62.3389 86.9621 62.3389 87.5323C62.3389 88.1024 62.0703 88.5704 61.7432 88.5704H58.2568C57.9297 88.5704 57.6611 88.1024 57.6611 87.5323C57.6611 86.9536 57.9297 86.4941 58.2568 86.4941Z" clip-rule="evenodd"/></g></svg>