<svg width="120" height="120" viewBox="0 0 120 120" fill="none" xmlns="http://www.w3.org/2000/svg">
<circle cx="60" cy="60" r="60" fill="#C4C4C4"/>
<path d="M51.937 49.1738C48.143 41.463 42.8206 36.5492 38.3528 45.0167C36.8928 47.7753 35.8479 51.5301 35.3889 55.5531C34.842 60.3233 35.2521 64.6815 36.2629 68.2735C37.1614 71.4727 38.5335 74.0877 40.1497 75.8885C41.7708 77.6988 43.6166 78.6758 45.4477 78.5705C47.4594 78.4555 49.4712 76.9996 51.1607 73.8674C53.5484 69.4325 55.6334 62.8041 57.6696 56.3386C59.8962 49.2696 62.0642 42.3826 64.7254 37.7274C66.6248 34.4036 68.6561 32.258 70.7167 31.0798C73.6757 29.394 76.6348 29.7676 79.3253 31.6067C81.9718 33.4074 84.3449 36.6067 86.1711 40.6297C87.7239 44.0397 88.9055 48.101 89.5501 52.4401C90.4876 58.762 89.9212 66.3386 88.2122 72.967C87.0012 77.6509 85.2043 81.9517 82.9484 85.0552C80.629 88.2448 77.836 90.1701 74.7109 89.9881C71.1366 89.7774 67.1912 86.8272 63.1238 79.8348L66.5076 72.2486C69.5887 77.5456 72.4062 79.7678 74.8525 79.9115C76.7959 80.0264 78.544 78.8099 80.0089 76.7984C81.5372 74.7007 82.7726 71.7218 83.6222 68.4267C84.7746 63.9631 85.1848 59.0876 84.6183 55.2562C84.1984 52.4209 83.3976 49.7102 82.3283 47.3539C81.0587 44.5569 79.4376 42.3538 77.6602 41.1374C75.9268 39.9592 74.0273 39.7006 72.1523 40.7734C70.8192 41.5301 69.4667 42.986 68.1532 45.2849C66.0193 49.0205 64.0564 55.2466 62.0447 61.6451C59.8278 68.6854 57.5573 75.898 54.7056 81.1854C52.0298 86.1567 48.812 88.4651 45.5893 88.6567C42.8011 88.8196 40.0227 87.3732 37.6106 84.672C35.1887 81.9709 33.1183 78.0053 31.7511 73.1394C30.169 67.5168 29.5294 60.7256 30.3741 53.3405C31.0528 47.4209 32.6105 41.8749 34.7931 37.7465C36.2629 34.9687 38.0159 32.8136 39.9837 31.5971C41.9661 30.371 44.1439 30.1124 46.4486 31.1277C49.4175 32.44 52.5572 35.8787 55.6529 42.1814L51.937 49.1738Z" fill="#E10F4C"/>
</svg>
